<?xml version="1.0" encoding="utf-8"?>
<!-- Generator: Adobe Illustrator 27.5.0, SVG Export Plug-In . SVG Version: 6.00 Build 0)  -->
<svg version="1.1" id="Layer_1" xmlns="http://www.w3.org/2000/svg" xmlns:xlink="http://www.w3.org/1999/xlink" x="0px" y="0px"
	 viewBox="0 0 500 500" style="enable-background:new 0 0 500 500;" xml:space="preserve">
<rect style="fill:#FFFFFF;" width="500" height="500"/>
<g>
	<path d="M39.57,79.085c-1.614,0-2.922,1.308-2.922,2.922c0,1.614,1.308,2.922,2.922,2.922c1.614,0,2.922-1.308,2.922-2.922
		C42.493,80.394,41.184,79.085,39.57,79.085z"/>
	<circle cx="464.558" cy="363.717" r="2.083"/>
	<path d="M250.87,479.513c0-1.045-0.847-1.892-1.892-1.892s-1.892,0.847-1.892,1.892c0,1.045,0.847,1.892,1.892,1.892
		S250.87,480.558,250.87,479.513z"/>
	<path d="M310.021,358.869c0-2.485-2.015-4.5-4.5-4.5s-4.5,2.015-4.5,4.5c0,2.485,2.014,4.5,4.5,4.5
		S310.021,361.354,310.021,358.869z"/>
	<circle cx="56.599" cy="100.7" r="1.915"/>
	<path d="M36.343,480.729c-1.934,0-3.501,1.568-3.501,3.501s1.568,3.501,3.501,3.501c1.934,0,3.501-1.568,3.501-3.501
		S38.276,480.729,36.343,480.729z"/>
	<path d="M175.242,211.065c0,1.244,1.009,2.253,2.253,2.253c1.244,0,2.253-1.009,2.253-2.253c0-1.244-1.009-2.253-2.253-2.253
		C176.25,208.812,175.242,209.821,175.242,211.065z"/>
	<path d="M407.274,254.516c0-0.848-0.688-1.536-1.536-1.536c-0.848,0-1.536,0.688-1.536,1.536c0,0.848,0.688,1.536,1.536,1.536
		C406.586,256.052,407.274,255.364,407.274,254.516z"/>
	<path d="M215.965,208.621c0-0.709-0.575-1.284-1.284-1.284c-0.709,0-1.284,0.575-1.284,1.284s0.575,1.284,1.284,1.284
		C215.39,209.905,215.965,209.33,215.965,208.621z"/>
	<ellipse transform="matrix(0.9226 -0.3858 0.3858 0.9226 -16.7862 180.3179)" cx="440.89" cy="131.984" rx="2.965" ry="2.965"/>
	<path d="M31.745,304.946c0,1.899,1.54,3.439,3.439,3.439s3.439-1.54,3.439-3.439c0-1.899-1.54-3.439-3.439-3.439
		S31.745,303.047,31.745,304.946z"/>
	<path d="M175.381,439.091c0,2.727,2.21,4.937,4.937,4.937c2.726,0,4.937-2.21,4.937-4.937c0-2.727-2.21-4.937-4.937-4.937
		C177.591,434.154,175.381,436.364,175.381,439.091z"/>
	<path d="M391.688,59.974c-2.423,0-4.387,1.964-4.387,4.387c0,2.423,1.964,4.387,4.387,4.387c2.423,0,4.387-1.964,4.387-4.387
		C396.075,61.938,394.111,59.974,391.688,59.974z"/>
	<path d="M469.907,479.796c0,0.7,0.567,1.267,1.267,1.267c0.7,0,1.267-0.567,1.267-1.267c0-0.7-0.567-1.267-1.267-1.267
		C470.474,478.529,469.907,479.096,469.907,479.796z"/>
	<path d="M405.295,392.819c1.287,0,2.331-1.044,2.331-2.331c0-1.287-1.044-2.331-2.331-2.331c-1.288,0-2.331,1.044-2.331,2.331
		C402.964,391.776,404.007,392.819,405.295,392.819z"/>
	<circle cx="262.009" cy="401.761" r="4.744"/>
	<path d="M74.05,351.185c0,1.014,0.822,1.837,1.837,1.837c1.014,0,1.837-0.822,1.837-1.837c0-1.014-0.822-1.837-1.837-1.837
		C74.872,349.349,74.05,350.171,74.05,351.185z"/>
	<circle cx="299.011" cy="110.441" r="1.84"/>
	<path d="M483.064,425.886c-1.159,0-2.098,0.939-2.098,2.098c0,1.159,0.939,2.098,2.098,2.098c1.159,0,2.098-0.939,2.098-2.098
		C485.162,426.825,484.223,425.886,483.064,425.886z"/>
	<path d="M53.412,238.375c0,1.722,1.396,3.119,3.119,3.119c1.722,0,3.119-1.396,3.119-3.119s-1.396-3.119-3.119-3.119
		C54.808,235.256,53.412,236.652,53.412,238.375z"/>
	<path d="M113.649,100.566c-0.761,0-1.378,0.617-1.378,1.379c0,0.761,0.617,1.378,1.378,1.378s1.379-0.617,1.379-1.378
		C115.028,101.183,114.411,100.566,113.649,100.566z"/>
	<circle cx="366.939" cy="255.083" r="1.743"/>
	<path d="M267.39,15.096c-2.66,0-4.817,2.157-4.817,4.817c0,2.66,2.157,4.817,4.817,4.817c2.66,0,4.817-2.157,4.817-4.817
		C272.207,17.253,270.051,15.096,267.39,15.096z"/>
	<path d="M162.199,335.81c0,0.89,0.721,1.611,1.611,1.611c0.89,0,1.611-0.721,1.611-1.611c0-0.89-0.721-1.611-1.611-1.611
		C162.92,334.199,162.199,334.92,162.199,335.81z"/>
	<path d="M232.334,90.285c0-0.723-0.586-1.309-1.309-1.309c-0.723,0-1.309,0.586-1.309,1.309c0,0.723,0.586,1.309,1.309,1.309
		C231.748,91.594,232.334,91.008,232.334,90.285z"/>
	<circle cx="169.546" cy="481.796" r="3.365"/>
	<path d="M339.896,241.97c0,1.239,1.004,2.243,2.243,2.243c1.239,0,2.243-1.004,2.243-2.243c0-1.239-1.004-2.243-2.243-2.243
		C340.9,239.727,339.896,240.731,339.896,241.97z"/>
	<circle cx="297.687" cy="241.998" r="4.73"/>
	<path d="M347.823,40.998c0-0.701-0.568-1.27-1.27-1.27c-0.701,0-1.27,0.569-1.27,1.27c0,0.701,0.569,1.27,1.27,1.27
		C347.255,42.268,347.823,41.7,347.823,40.998z"/>
	<path d="M442.38,334.092c0,2.479,2.009,4.488,4.488,4.488c2.479,0,4.488-2.01,4.488-4.488c0-2.479-2.01-4.488-4.488-4.488
		C444.39,329.604,442.38,331.614,442.38,334.092z"/>
	<path d="M332.643,91.792c0-1.445-1.171-2.616-2.616-2.616c-1.445,0-2.616,1.171-2.616,2.616c0,1.445,1.171,2.616,2.616,2.616
		C331.472,94.408,332.643,93.237,332.643,91.792z"/>
	<path d="M43.795,19.988c0.734,0,1.329-0.595,1.329-1.329c0-0.734-0.595-1.329-1.329-1.329c-0.734,0-1.329,0.595-1.329,1.329
		C42.466,19.393,43.061,19.988,43.795,19.988z"/>
	<path d="M109.031,277.952c0,1.506,1.221,2.727,2.727,2.727c1.506,0,2.727-1.221,2.727-2.727c0-1.506-1.221-2.727-2.727-2.727
		C110.252,275.225,109.031,276.446,109.031,277.952z"/>
	<path d="M165.438,264.525c-0.719,0-1.302,0.583-1.302,1.302c0,0.719,0.583,1.302,1.302,1.302s1.302-0.583,1.302-1.302
		C166.74,265.108,166.157,264.525,165.438,264.525z"/>
	<path d="M201.599,319.873c0.804,0,1.455-0.652,1.455-1.455s-0.652-1.455-1.455-1.455s-1.455,0.651-1.455,1.455
		S200.796,319.873,201.599,319.873z"/>
	<path d="M462.411,52.586c-0.838,0-1.517,0.679-1.517,1.517c0,0.838,0.679,1.517,1.517,1.517c0.838,0,1.517-0.679,1.517-1.517
		C463.928,53.265,463.248,52.586,462.411,52.586z"/>
	<path d="M85.2,317.263c0,2.452,1.988,4.441,4.44,4.441s4.441-1.988,4.441-4.441c0-2.452-1.988-4.44-4.441-4.44
		S85.2,314.811,85.2,317.263z"/>
	<path d="M473.745,302.057c0,0.985,0.799,1.784,1.784,1.784c0.985,0,1.784-0.799,1.784-1.784c0-0.985-0.799-1.784-1.784-1.784
		C474.544,300.273,473.745,301.072,473.745,302.057z"/>
	<path d="M107.579,221.369c0-2.12-1.718-3.838-3.838-3.838c-2.119,0-3.838,1.718-3.838,3.838c0,2.119,1.718,3.838,3.838,3.838
		C105.86,225.206,107.579,223.488,107.579,221.369z"/>
	<path d="M273.849,170.026c-2.593,0-4.695,2.102-4.695,4.695c0,2.593,2.102,4.695,4.695,4.695s4.695-2.102,4.695-4.695
		C278.544,172.128,276.442,170.026,273.849,170.026z"/>
	<circle cx="65.668" cy="193.923" r="4.002"/>
	<path d="M346.755,330.333c0,1.083,0.878,1.962,1.962,1.962c1.083,0,1.962-0.878,1.962-1.962c0-1.083-0.878-1.962-1.962-1.962
		C347.634,328.371,346.755,329.249,346.755,330.333z"/>
	<circle cx="19.544" cy="372.112" r="2.696"/>
	<path d="M484.117,177.351c0-0.965-0.782-1.747-1.747-1.747c-0.965,0-1.747,0.782-1.747,1.747c0,0.965,0.782,1.747,1.747,1.747
		C483.335,179.098,484.117,178.316,484.117,177.351z"/>
	<circle cx="388.803" cy="15.599" r="3.33"/>
	<path d="M289.352,425.985c0-0.819-0.664-1.483-1.483-1.483c-0.819,0-1.483,0.664-1.483,1.483c0,0.819,0.664,1.483,1.483,1.483
		C288.688,427.468,289.352,426.804,289.352,425.985z"/>
	<path d="M147.976,417.901c0,2.29,1.857,4.147,4.147,4.147c2.29,0,4.147-1.857,4.147-4.147c0-2.29-1.857-4.147-4.147-4.147
		C149.833,413.755,147.976,415.611,147.976,417.901z"/>
	<path d="M482.627,223.86c1.161,0,2.102-0.941,2.102-2.102c0-1.161-0.941-2.102-2.102-2.102s-2.102,0.941-2.102,2.102
		C480.524,222.919,481.466,223.86,482.627,223.86z"/>
	<ellipse transform="matrix(0.9228 -0.3852 0.3852 0.9228 30.2324 181.8958)" cx="469.059" cy="15.499" rx="2.581" ry="2.581"/>
	<path d="M203.232,364.483c2.172,0,3.932-1.76,3.932-3.932c0-2.172-1.76-3.932-3.932-3.932c-2.171,0-3.932,1.76-3.932,3.932
		C199.3,362.723,201.06,364.483,203.232,364.483z"/>
	<path d="M26.884,231.386c0-1.94-1.573-3.513-3.513-3.513c-1.94,0-3.513,1.573-3.513,3.513c0,1.94,1.573,3.513,3.513,3.513
		C25.311,234.9,26.884,233.327,26.884,231.386z"/>
	<path d="M477.882,112.343c0-0.833-0.675-1.508-1.508-1.508c-0.833,0-1.508,0.675-1.508,1.508s0.675,1.508,1.508,1.508
		C477.207,113.851,477.882,113.176,477.882,112.343z"/>
	<path d="M135.849,231.033c0,1.203,0.975,2.178,2.178,2.178c1.203,0,2.178-0.975,2.178-2.178c0-1.203-0.975-2.178-2.178-2.178
		C136.824,228.855,135.849,229.83,135.849,231.033z"/>
	<circle cx="345.697" cy="150.557" r="4.518"/>
	<path d="M211.054,460.412c0,0.889,0.721,1.61,1.61,1.61c0.889,0,1.61-0.721,1.61-1.61c0-0.889-0.721-1.61-1.61-1.61
		C211.775,458.802,211.054,459.523,211.054,460.412z"/>
	<path d="M118.295,346.874c0,0.797,0.646,1.443,1.443,1.443s1.443-0.646,1.443-1.443c0-0.797-0.646-1.443-1.443-1.443
		S118.295,346.077,118.295,346.874z"/>
	<circle cx="303.955" cy="451.086" r="3.46"/>
	<path d="M253.791,259.578c-0.816,0-1.477,0.661-1.477,1.477c0,0.816,0.661,1.477,1.477,1.477c0.816,0,1.477-0.661,1.477-1.477
		C255.267,260.24,254.606,259.578,253.791,259.578z"/>
	<path d="M51.36,449.93c0,2.548,2.066,4.614,4.614,4.614s4.614-2.066,4.614-4.614c0-2.548-2.066-4.614-4.614-4.614
		S51.36,447.381,51.36,449.93z"/>
	<path d="M20.932,452.76c1.126,0,2.039-0.913,2.039-2.039c0-1.126-0.913-2.04-2.039-2.04s-2.039,0.913-2.039,2.04
		C18.892,451.847,19.805,452.76,20.932,452.76z"/>
	<path d="M150.547,24.306c-1.532,0-2.774,1.242-2.774,2.774c0,1.532,1.242,2.774,2.774,2.774c1.532,0,2.774-1.242,2.774-2.774
		C153.322,25.548,152.079,24.306,150.547,24.306z"/>
	<circle cx="425.803" cy="94.777" r="2.472"/>
	<path d="M343.911,431.081c-0.777,0-1.407,0.63-1.407,1.407s0.63,1.407,1.407,1.407s1.407-0.63,1.407-1.407
		S344.688,431.081,343.911,431.081z"/>
	<path d="M122.16,58.368c0-1.753-1.421-3.174-3.174-3.174s-3.174,1.421-3.174,3.174c0,1.753,1.421,3.174,3.174,3.174
		S122.16,60.121,122.16,58.368z"/>
	<path d="M253.548,314.069c0,1.92,1.557,3.477,3.477,3.477c1.921,0,3.477-1.557,3.477-3.477c0-1.921-1.557-3.477-3.477-3.477
		C255.105,310.591,253.548,312.148,253.548,314.069z"/>
	<path d="M61.921,400.225c-1.762,0-3.19,1.428-3.19,3.19c0,1.762,1.428,3.19,3.19,3.19c1.762,0,3.19-1.428,3.19-3.19
		C65.111,401.654,63.683,400.225,61.921,400.225z"/>
	<path d="M17.937,34.028c-1.021,0-1.849,0.828-1.849,1.848s0.828,1.849,1.849,1.849c1.021,0,1.849-0.828,1.849-1.849
		S18.958,34.028,17.937,34.028z"/>
	<circle cx="154.074" cy="105.876" r="4.215"/>
	<path d="M398.187,142.426c1.933,0,3.499-1.567,3.499-3.499c0-1.933-1.567-3.499-3.499-3.499c-1.933,0-3.499,1.567-3.499,3.499
		C394.688,140.859,396.255,142.426,398.187,142.426z"/>
	<circle cx="180.227" cy="153.601" r="3.511"/>
	<path d="M86.831,162.174c-1.913,0-3.463,1.55-3.463,3.463c0,1.912,1.55,3.463,3.463,3.463c1.912,0,3.463-1.55,3.463-3.463
		C90.294,163.724,88.743,162.174,86.831,162.174z"/>
	<path d="M450.243,248.843c2.327,0,4.214-1.887,4.214-4.214c0-2.327-1.887-4.214-4.214-4.214c-2.327,0-4.214,1.887-4.214,4.214
		C446.029,246.956,447.916,248.843,450.243,248.843z"/>
	<circle cx="128.93" cy="452.771" r="2.891"/>
	<path d="M422.568,293.964c0,0.731,0.593,1.324,1.324,1.324c0.731,0,1.324-0.593,1.324-1.324c0-0.731-0.592-1.324-1.324-1.324
		C423.161,292.641,422.568,293.233,422.568,293.964z"/>
	<path d="M406.595,461.574c0,1.273,1.032,2.304,2.304,2.304c1.273,0,2.304-1.032,2.304-2.304c0-1.273-1.032-2.304-2.304-2.304
		C407.626,459.27,406.595,460.302,406.595,461.574z"/>
	<path d="M28.785,133.131c0-2.72-2.205-4.925-4.925-4.925c-2.72,0-4.925,2.205-4.925,4.925c0,2.72,2.205,4.925,4.925,4.925
		C26.58,138.057,28.785,135.852,28.785,133.131z"/>
	<path d="M416.606,194.662c0-2.116-1.715-3.831-3.831-3.831c-2.116,0-3.831,1.715-3.831,3.831c0,2.116,1.715,3.831,3.831,3.831
		C414.891,198.493,416.606,196.777,416.606,194.662z"/>
	<path d="M343.332,468.948c-0.968,0-1.753,0.785-1.753,1.753c0,0.968,0.785,1.753,1.753,1.753c0.968,0,1.753-0.785,1.753-1.753
		C345.085,469.732,344.3,468.948,343.332,468.948z"/>
	<path d="M227.716,139.574c0-0.909-0.737-1.645-1.645-1.645c-0.909,0-1.645,0.737-1.645,1.645s0.737,1.645,1.645,1.645
		C226.98,141.219,227.716,140.482,227.716,139.574z"/>
	<path d="M476.875,392.771c2.135,0,3.866-1.731,3.866-3.866c0-2.135-1.731-3.866-3.866-3.866c-2.135,0-3.866,1.731-3.866,3.866
		C473.009,391.04,474.74,392.771,476.875,392.771z"/>
	<circle cx="405.359" cy="330.347" r="1.933"/>
	<circle cx="279.155" cy="471.854" r="3.835"/>
	<circle cx="318.406" cy="189.321" r="4.401"/>
	<path d="M338.708,288.505c0-0.878-0.712-1.59-1.59-1.59c-0.878,0-1.59,0.712-1.59,1.59c0,0.878,0.712,1.59,1.59,1.59
		C337.996,290.095,338.708,289.383,338.708,288.505z"/>
	<path d="M14.838,273.557c0,1.068,0.865,1.933,1.933,1.933c1.068,0,1.933-0.866,1.933-1.933s-0.865-1.933-1.933-1.933
		C15.703,271.624,14.838,272.49,14.838,273.557z"/>
	<path d="M365.103,378.522c0-2.183-1.77-3.953-3.953-3.953c-2.183,0-3.953,1.77-3.953,3.953c0,2.183,1.77,3.953,3.953,3.953
		C363.333,382.474,365.103,380.705,365.103,378.522z"/>
	<circle cx="136.792" cy="159.071" r="1.306"/>
	<path d="M379.814,194.34c0-1.114-0.903-2.018-2.018-2.018c-1.114,0-2.018,0.903-2.018,2.018c0,1.114,0.903,2.017,2.018,2.017
		C378.911,196.357,379.814,195.454,379.814,194.34z"/>
	<path d="M75.194,21.168c-0.844,0-1.528,0.684-1.528,1.528c0,0.844,0.684,1.528,1.528,1.528c0.844,0,1.528-0.684,1.528-1.528
		C76.722,21.852,76.038,21.168,75.194,21.168z"/>
	<path d="M58.663,270.146c0,1.584,1.284,2.868,2.868,2.868c1.584,0,2.868-1.284,2.868-2.868s-1.284-2.868-2.868-2.868
		C59.947,267.278,58.663,268.562,58.663,270.146z"/>
	<path d="M126.31,389.455c-0.817,0-1.479,0.662-1.479,1.479c0,0.817,0.662,1.479,1.479,1.479c0.817,0,1.479-0.662,1.479-1.479
		C127.788,390.117,127.126,389.455,126.31,389.455z"/>
	<circle cx="37.761" cy="174.831" r="1.543"/>
	<path d="M256.563,65.488c0,2.25,1.824,4.075,4.075,4.075c2.251,0,4.075-1.824,4.075-4.075c0-2.251-1.824-4.075-4.075-4.075
		C258.387,61.413,256.563,63.237,256.563,65.488z"/>
	<path d="M111.645,479.122c0,1.357,1.1,2.457,2.457,2.457c1.357,0,2.457-1.1,2.457-2.457c0-1.357-1.1-2.457-2.457-2.457
		C112.745,476.665,111.645,477.765,111.645,479.122z"/>
	<path d="M208.776,22.689c-1.53,0-2.771,1.241-2.771,2.771c0,1.53,1.241,2.771,2.771,2.771c1.53,0,2.771-1.241,2.771-2.771
		C211.547,23.93,210.307,22.689,208.776,22.689z"/>
</g>
</svg>
